<svg xmlns="http://www.w3.org/2000/svg" width="1200" height="630" viewBox="0 0 1200 630">
  <defs>
    <linearGradient id="bg" x1="0" y1="0" x2="1" y2="1">
      <stop offset="0" stop-color="#0d0a1f"/>
      <stop offset="1" stop-color="#07060f"/>
    </linearGradient>
    <linearGradient id="accent" x1="0" y1="0" x2="1" y2="0">
      <stop offset="0" stop-color="#06d7f0"/>
      <stop offset="0.5" stop-color="#ff3df0"/>
      <stop offset="1" stop-color="#a855f7"/>
    </linearGradient>
  </defs>
  <rect width="1200" height="630" fill="url(#bg)"/>
  <g opacity="0.12" stroke="#06d7f0" stroke-width="1">
    <path d="M0 90 H1200 M0 180 H1200 M0 270 H1200 M0 360 H1200 M0 450 H1200 M0 540 H1200"/>
    <path d="M120 0 V630 M240 0 V630 M360 0 V630 M480 0 V630 M600 0 V630 M720 0 V630 M840 0 V630 M960 0 V630 M1080 0 V630"/>
  </g>
  <rect x="0" y="0" width="1200" height="6" fill="url(#accent)"/>
  <text x="80" y="250" font-family="'Rajdhani','Segoe UI',sans-serif" font-size="78" font-weight="700" fill="#f4f2ff">HASAN EREN AKGÖZ</text>
  <text x="80" y="320" font-family="'JetBrains Mono',monospace" font-size="34" fill="#06d7f0">Full Stack Developer · AI Integration</text>
  <text x="80" y="400" font-family="'JetBrains Mono',monospace" font-size="26" fill="#c4bfe6">4+ yrs · Feedback4e · .NET · Angular · OpenAI</text>
  <g font-family="'JetBrains Mono',monospace" font-size="22" fill="#39ff9e">
    <text x="80" y="500">&gt; available_for_hire = true</text>
  </g>
  <text x="80" y="560" font-family="'JetBrains Mono',monospace" font-size="20" fill="#8c87ad">erenakgoz.dev</text>
</svg>
